<svg t="1655714839615" class="icon" viewBox="0 0 1024 1024" version="1.1" xmlns="http://www.w3.org/2000/svg" p-id="7272" width="200" height="200"><path d="M512.017142 1024c-282.269963 0-511.97143-229.701468-511.97143-511.97143s229.701468-511.97143 511.97143-511.97143 511.97143 229.701468 511.97143 511.97143-229.701468 511.97143-511.97143 511.97143z m0-949.067039c-240.992266 0-437.072753 196.069059-437.072753 437.072753s196.046203 437.049897 437.072753 437.049897S949.055611 752.986552 949.055611 512.02857 752.986552 74.921533 512.017142 74.921533z" fill="#74B65B" p-id="7273"></path><path d="M789.133106 397.200692a162.345226 162.345226 0 0 0-162.345226-162.333798 162.345226 162.345226 0 0 0-229.587188 0 162.345226 162.345226 0 0 0-162.333798 162.333798 162.333798 162.333798 0 0 0 0 229.587188 162.345226 162.345226 0 0 0 162.333798 162.333798 162.333798 162.333798 0 0 0 229.587188 0 162.345226 162.345226 0 0 0 162.345226-162.333798 162.345226 162.345226 0 0 0 0-229.587188z" fill="#EEE82C" p-id="7274"></path><path d="M512.017142 874.134077a198.263222 198.263222 0 0 1-130.072742-48.123029 199.863133 199.863133 0 0 1-183.989732-183.989732 199.851705 199.851705 0 0 1 0-260.145483 199.840277 199.840277 0 0 1 183.989732-183.989733 199.851705 199.851705 0 0 1 260.145483 0 199.920272 199.920272 0 0 1 183.989733 183.989733 199.9317 199.9317 0 0 1 0 260.145483 199.885989 199.885989 0 0 1-183.989733 183.989732 198.33179 198.33179 0 0 1-130.072741 48.123029zM397.21212 272.32766a124.873032 124.873032 0 0 0-124.873032 124.873032v15.519134l-10.970816 10.970816a124.82732 124.82732 0 0 0 0 176.584432l10.970816 10.970816v15.519134a124.850176 124.850176 0 0 0 124.873032 124.895888h15.507706l10.970816 10.970816a124.873032 124.873032 0 0 0 176.607288 0l10.970816-10.959388h15.507706a124.907315 124.907315 0 0 0 124.895888-124.88446v-15.519134l10.970816-10.970816a124.918743 124.918743 0 0 0 0-176.607288l-10.970816-10.970816v-15.519134A124.88446 124.88446 0 0 0 626.799308 272.32766H611.280174l-10.970816-10.959388a124.873032 124.873032 0 0 0-176.607288 0l-10.970816 10.970816z" fill="#74B65B" p-id="7275"></path><path d="M476.430556 462.431338a37.483623 37.483623 0 0 1-34.603783-23.061571l-78.372769-187.978081a37.472195 37.472195 0 1 1 69.173282-28.832677l78.361342 187.978082a37.483623 37.483623 0 0 1-34.558072 51.894247z" fill="#74B65B" p-id="7276"></path><path d="M425.256269 513.091368a37.586474 37.586474 0 0 1-14.239205-2.834128l-188.32092-77.527102a37.473337 37.473337 0 0 1 28.569834-69.287562l188.309492 77.527102a37.472195 37.472195 0 0 1-14.296345 72.12169z" fill="#74B65B" p-id="7277"></path><path d="M236.992489 663.391552a37.472195 37.472195 0 0 1-14.43348-72.06455l187.978082-78.31563a37.472195 37.472195 0 0 1 28.832676 69.173283l-187.989509 78.31563a37.380771 37.380771 0 0 1-14.387769 2.891267z" fill="#74B65B" p-id="7278"></path><path d="M398.069215 824.491133a37.472195 37.472195 0 0 1-34.615211-51.745684l77.53853-188.286635a37.463052 37.463052 0 1 1 69.264706 28.569834l-77.53853 188.252352a37.472195 37.472195 0 0 1-34.649495 23.210133z" fill="#74B65B" p-id="7279"></path><path d="M625.942213 824.491133a37.472195 37.472195 0 0 1-34.603783-23.072998l-78.327058-187.978081a37.466481 37.466481 0 1 1 69.173283-28.809821l78.31563 187.955225a37.483623 37.483623 0 0 1-34.558072 51.882819z" fill="#74B65B" p-id="7280"></path><path d="M786.984655 663.380124a37.586474 37.586474 0 0 1-14.239206-2.788416l-188.298063-77.572814a37.473337 37.473337 0 0 1 28.569834-69.287562l188.286636 77.53853a37.472195 37.472195 0 0 1-14.296345 72.12169z" fill="#74B65B" p-id="7281"></path><path d="M599.063713 513.868467a37.472195 37.472195 0 0 1-14.43348-72.06455l187.943797-78.338485a37.472195 37.472195 0 0 1 28.832677 69.173282L613.451482 510.9772a37.380771 37.380771 0 0 1-14.387769 2.891267z" fill="#74B65B" p-id="7282"></path><path d="M548.357971 462.75132a37.472195 37.472195 0 0 1-34.603783-51.745684l77.53853-188.298064a37.463052 37.463052 0 1 1 69.264706 28.569834l-77.53853 188.26378a37.472195 37.472195 0 0 1-34.660923 23.210134z" fill="#74B65B" p-id="7283"></path><path d="M512.017142 643.449807a131.421238 131.421238 0 1 1 131.421238-131.421237 131.581229 131.581229 0 0 1-131.421238 131.421237z m0-187.978081a56.52256 56.52256 0 1 0 56.511132 56.556844 56.568272 56.568272 0 0 0-56.511132-56.556844z" fill="#74B65B" p-id="7284"></path></svg>